<?xml version="1.0" encoding="UTF-8"?><svg id="Camada_2" data-name="Camada 2" xmlns="http://www.w3.org/2000/svg" viewBox="0 0 453.54 160"><defs><style>.cls-1 {
        fill: #fff;
      }

      .cls-2 {
        fill: transparent;
      }</style></defs><rect class="cls-2" x="51.77" y="0" width="350" height="160"/><g><path class="cls-2" d="M290.98,8.74c-2.82-1.73-6.33-1.87-9.28-.37l-54.93,27.99-54.93-27.99c-2.95-1.5-6.46-1.36-9.28.37-2.82,1.73-4.54,4.8-4.54,8.1v91.67c0,3.38,1.79,6.5,4.7,8.2l59.25,34.65c1.48.87,3.14,1.3,4.8,1.3s3.32-.43,4.8-1.3l59.25-34.65c2.91-1.7,4.7-4.83,4.7-8.2V16.84c0-3.31-1.72-6.37-4.54-8.1Z"/><g><path class="cls-1" d="M229.4,90.4c3.59.06,8.08.46,12.41,2.01,1.28.46,2.5,1.04,3.58,1.9,1.26.99,1.94,2.23,1.9,3.9-.06,2.6-.01,5.2-.02,7.8,0,1.14-.54,1.8-1.45,1.8-.91,0-1.45-.66-1.45-1.8,0-2.54-.05-5.08.02-7.61.03-1-.39-1.59-1.14-2.08-1.57-1.01-3.32-1.58-5.12-1.97-7.05-1.5-14.08-1.48-21.06.43-1.31.36-2.57.87-3.69,1.67-.63.45-.96.98-.94,1.82.06,2.57.02,5.14.02,7.7,0,1.16-.51,1.81-1.42,1.84-.93.02-1.48-.66-1.48-1.86,0-2.57.05-5.14-.02-7.7-.05-1.74.68-3.02,2.02-4.02,2.16-1.6,4.68-2.32,7.26-2.87,3.17-.68,6.39-.95,10.59-.94Z"/><path class="cls-1" d="M184.91,94.59c0-1.21.05-2.42-.01-3.62-.09-1.74.68-3.02,2.02-4.01,1.88-1.4,4.04-2.16,6.28-2.64,8.04-1.72,16.04-1.72,23.94.83.83.27,1.63.63,2.38,1.09.74.46.97,1.23.6,1.94-.38.72-1.14.99-1.93.6-5.48-2.66-11.34-2.85-17.25-2.63-3.23.12-6.42.6-9.49,1.71-.37.13-.73.28-1.09.42-1.8.7-2.82,1.77-2.6,3.95.23,2.15.05,4.34.05,6.52,0,1.15-.53,1.81-1.44,1.81-.91,0-1.46-.65-1.46-1.79,0-1.39,0-2.78,0-4.17Z"/><path class="cls-1" d="M271.93,94.63c0,1.42,0,2.84,0,4.26,0,1.01-.56,1.64-1.41,1.66-.88.03-1.48-.63-1.49-1.67-.01-2.57-.05-5.14.02-7.7.03-1.02-.38-1.65-1.18-2.15-1.58-.99-3.32-1.57-5.12-1.95-7.02-1.49-14.02-1.43-20.97.43-1.02.27-1.99.69-2.93,1.17-.95.49-1.76.27-2.16-.53-.38-.77-.1-1.54.8-2.02,2.39-1.29,4.99-1.95,7.65-2.36,6.36-.97,12.69-.88,18.96.66,1.85.45,3.63,1.1,5.25,2.13,1.73,1.1,2.76,2.55,2.59,4.72-.09,1.11-.02,2.23-.02,3.35Z"/><path class="cls-1" d="M203.8,58.49c-6.44,0-11.63,5.18-11.64,11.61,0,6.41,5.22,11.61,11.65,11.6,6.34,0,11.57-5.26,11.55-11.61-.02-6.39-5.21-11.6-11.57-11.59ZM203.77,78.79c-4.81,0-8.71-3.89-8.71-8.69,0-4.79,3.91-8.72,8.69-8.71,4.84.01,8.73,3.93,8.71,8.78-.02,4.73-3.95,8.63-8.69,8.62Z"/><path class="cls-1" d="M253.16,58.49c-6.45-.01-11.67,5.15-11.69,11.56-.02,6.42,5.17,11.64,11.6,11.65,6.31.01,11.56-5.18,11.6-11.47.04-6.45-5.13-11.72-11.51-11.74ZM253.05,78.79c-4.8-.02-8.68-3.92-8.68-8.72,0-4.79,3.94-8.7,8.72-8.68,4.8.03,8.67,3.91,8.68,8.73,0,4.77-3.94,8.69-8.73,8.67Z"/><path class="cls-1" d="M228.48,65.74c-6.48,0-11.68,5.2-11.66,11.67.02,6.36,5.23,11.53,11.63,11.53,6.34,0,11.58-5.24,11.58-11.59,0-6.4-5.19-11.61-11.54-11.62ZM228.46,86.05c-4.85,0-8.76-3.9-8.74-8.75.01-4.75,3.92-8.65,8.66-8.65,4.85,0,8.75,3.9,8.74,8.75,0,4.73-3.92,8.65-8.66,8.65Z"/></g></g></svg>